<svg width="69" height="69" viewBox="0 0 69 69" fill="none" xmlns="http://www.w3.org/2000/svg">
<path d="M34.5 69C53.5538 69 69 53.5538 69 34.5C69 15.4462 53.5538 0 34.5 0C15.4462 0 0 15.4462 0 34.5C0 53.5538 15.4462 69 34.5 69Z" fill="#1C33FF"/>
<path d="M17.0435 37.072H14.1394C14.2684 37.3911 14.28 37.7456 14.1719 38.0724C14.0638 38.3992 13.8432 38.6769 13.5494 38.8562C13.3147 39.0247 13.0321 39.1133 12.7433 39.1088C12.4544 39.1044 12.1747 39.0071 11.9454 38.8314C11.6641 38.6497 11.4547 38.376 11.3529 38.057C11.251 37.7381 11.2632 37.3936 11.3871 37.0826C11.1511 37.0825 10.9152 37.0695 10.6805 37.0437C10.3298 36.9918 10.009 36.8169 9.77538 36.5502C9.54175 36.2836 9.41051 35.9426 9.40511 35.5881C9.39891 35.2347 9.51674 34.8902 9.73812 34.6146C9.95951 34.339 10.2705 34.1497 10.6169 34.0795L10.8113 34.0406C10.7759 33.7474 10.7406 33.4577 10.7017 33.168L10.2248 29.5113C10.0941 28.5256 9.97039 27.5363 9.82907 26.5506C9.78846 26.2709 9.64879 26.0151 9.43547 25.8296C9.22215 25.6442 8.94936 25.5415 8.66671 25.5402C8.17562 25.5402 7.68806 25.5402 7.20051 25.5402C7.12267 25.5441 7.04513 25.5281 6.97517 25.4938C6.90521 25.4594 6.84514 25.4078 6.80062 25.3439C6.7561 25.2799 6.72858 25.2057 6.72066 25.1281C6.71273 25.0506 6.72467 24.9723 6.75534 24.9007C6.78106 24.826 6.82836 24.7606 6.89125 24.7128C6.95414 24.665 7.0298 24.637 7.10864 24.6322C7.72353 24.611 8.3391 24.6216 8.95288 24.664C9.40516 24.7251 9.82481 24.9332 10.1472 25.2562C10.4696 25.5792 10.6769 25.9993 10.7371 26.4517C10.7583 26.6107 10.783 26.7732 10.7971 26.9357C10.7971 27.0241 10.8431 27.0629 10.9314 27.0523H21.2584C21.3548 27.0503 21.451 27.061 21.5446 27.0841C21.6467 27.1202 21.7325 27.1918 21.7863 27.2858C21.8401 27.3798 21.8584 27.49 21.8378 27.5964C21.6211 28.9484 21.4044 30.3015 21.1878 31.6559C21.1348 32.0092 21.0782 32.3307 21.0252 32.6663C20.9781 33.0872 20.7812 33.4772 20.4706 33.7651C20.16 34.0531 19.7562 34.2198 19.3329 34.235L14.4573 34.6589L10.8854 34.9698C10.8038 34.9679 10.7226 34.9828 10.647 35.0135C10.5713 35.0442 10.5027 35.0901 10.4455 35.1484C10.3883 35.2067 10.3436 35.2761 10.3143 35.3523C10.285 35.4285 10.2716 35.5099 10.275 35.5915C10.2784 35.6731 10.2985 35.7532 10.334 35.8267C10.3696 35.9002 10.4198 35.9657 10.4817 36.019C10.5435 36.0723 10.6157 36.1124 10.6936 36.1367C10.7716 36.161 10.8537 36.1691 10.9349 36.1605H16.2345C16.9411 36.1605 17.6689 36.1605 18.3825 36.1605C18.718 36.1576 19.0442 36.2698 19.3069 36.4784C19.5696 36.6871 19.7528 36.9795 19.826 37.3068C19.8991 37.6342 19.8578 37.9768 19.709 38.2774C19.5601 38.578 19.3126 38.8184 19.0079 38.9586C18.7565 39.0736 18.4778 39.1152 18.2039 39.0786C17.9299 39.042 17.6719 38.9287 17.4595 38.7518C17.2472 38.5749 17.0891 38.3416 17.0037 38.0788C16.9182 37.8159 16.9087 37.5343 16.9764 37.2663C17.0117 37.1956 17.0258 37.1426 17.0435 37.072ZM13.885 32.1257C13.7896 31.1118 13.6942 30.0907 13.5953 29.0697C13.5924 29.0073 13.5766 28.9462 13.5489 28.8903C13.5212 28.8343 13.4823 28.7847 13.4345 28.7446C13.3867 28.7044 13.3311 28.6746 13.2712 28.657C13.2113 28.6393 13.1485 28.6343 13.0865 28.6422C13.0247 28.6504 12.9651 28.6709 12.9113 28.7025C12.8575 28.7341 12.8106 28.7762 12.7734 28.8263C12.7361 28.8764 12.7093 28.9334 12.6946 28.994C12.6798 29.0546 12.6773 29.1176 12.6873 29.1792C12.7156 29.4512 12.7403 29.7268 12.765 29.9989C12.8357 30.7302 12.9028 31.4651 12.977 32.1964C12.9818 32.2564 12.9987 32.3148 13.0265 32.3682C13.0544 32.4215 13.0927 32.4687 13.1392 32.5069C13.1857 32.5452 13.2394 32.5737 13.2971 32.5907C13.3548 32.6078 13.4154 32.6131 13.4752 32.6062C13.5885 32.5916 13.6926 32.5362 13.7681 32.4504C13.8435 32.3645 13.8851 32.2542 13.885 32.1399V32.1257ZM17.9868 32.1257C17.9838 32.2435 18.0261 32.3579 18.105 32.4454C18.1839 32.5328 18.2934 32.5866 18.4108 32.5956C18.4705 32.6005 18.5306 32.5934 18.5875 32.5748C18.6444 32.5562 18.6971 32.5265 18.7425 32.4874C18.7878 32.4482 18.825 32.4005 18.8517 32.3469C18.8785 32.2933 18.8943 32.235 18.8984 32.1752C18.9949 31.1718 19.0891 30.1708 19.181 29.1721C19.1921 29.1107 19.1906 29.0478 19.1767 28.9869C19.1628 28.9261 19.1368 28.8688 19.1001 28.8183C19.0635 28.7678 19.017 28.7252 18.9635 28.6931C18.9101 28.6611 18.8506 28.6401 18.7888 28.6316C18.7245 28.6255 18.6595 28.6332 18.5984 28.6543C18.5373 28.6754 18.4814 28.7094 18.4345 28.7539C18.3877 28.7984 18.3509 28.8525 18.3267 28.9125C18.3025 28.9724 18.2914 29.0369 18.2942 29.1015C18.2553 29.4336 18.2271 29.7692 18.1953 30.1013C18.1176 30.7655 18.054 31.4474 17.9868 32.1505V32.1257ZM16.3934 30.6242C16.3934 30.1331 16.3934 29.6385 16.3934 29.1474C16.399 29.0839 16.3913 29.02 16.3709 28.9597C16.3504 28.8993 16.3176 28.8439 16.2746 28.7969C16.2316 28.75 16.1793 28.7124 16.1209 28.6868C16.0626 28.6611 15.9996 28.6479 15.9359 28.6479C15.8722 28.6479 15.8092 28.6611 15.7509 28.6868C15.6926 28.7124 15.6402 28.75 15.5972 28.7969C15.5542 28.8439 15.5214 28.8993 15.5009 28.9597C15.4805 29.02 15.4728 29.0839 15.4784 29.1474C15.4784 30.1272 15.4784 31.1082 15.4784 32.0904C15.4714 32.1455 15.4714 32.2013 15.4784 32.2565C15.5059 32.3648 15.5723 32.4592 15.6649 32.5217C15.7575 32.5843 15.8698 32.6107 15.9805 32.5958C16.0913 32.581 16.1927 32.526 16.2656 32.4413C16.3385 32.3566 16.3777 32.2481 16.3758 32.1363C16.397 31.6559 16.3934 31.1542 16.3934 30.6489V30.6242ZM12.2139 37.5949C12.2132 37.7042 12.245 37.8112 12.3053 37.9024C12.3656 37.9936 12.4516 38.0648 12.5525 38.1069C12.6533 38.1491 12.7644 38.1603 12.8717 38.1391C12.9789 38.118 13.0774 38.0654 13.1547 37.9881C13.232 37.9108 13.2846 37.8123 13.3057 37.7051C13.3269 37.5978 13.3157 37.4867 13.2735 37.3858C13.2314 37.285 13.1602 37.199 13.069 37.1387C12.9778 37.0784 12.8708 37.0466 12.7615 37.0473C12.6874 37.0472 12.6142 37.0621 12.546 37.0912C12.4779 37.1202 12.4164 37.1628 12.3652 37.2163C12.3141 37.2698 12.2743 37.3331 12.2482 37.4024C12.2222 37.4718 12.2105 37.5456 12.2139 37.6196V37.5949ZM18.9761 37.5949C18.9761 37.4478 18.9176 37.3067 18.8136 37.2026C18.7096 37.0986 18.5685 37.0402 18.4214 37.0402C18.2743 37.0402 18.1332 37.0986 18.0292 37.2026C17.9252 37.3067 17.8667 37.4478 17.8667 37.5949C17.8667 37.742 17.9252 37.8831 18.0292 37.9871C18.1332 38.0911 18.2743 38.1496 18.4214 38.1496C18.5685 38.1496 18.7096 38.0911 18.8136 37.9871C18.9176 37.8831 18.9761 37.742 18.9761 37.5949Z" fill="white"/>
<path d="M19.9825 57.0123L18.5692 56.4364C18.2689 56.6484 17.9545 56.878 17.633 57.0971C17.5289 57.1769 17.3988 57.215 17.2681 57.2039C17.1374 57.1928 17.0155 57.1333 16.9264 57.037C16.6261 56.7438 16.3328 56.447 16.0396 56.1502C15.947 56.0585 15.8909 55.9363 15.8818 55.8063C15.8727 55.6762 15.9112 55.5474 15.9901 55.4436C16.1915 55.1539 16.3964 54.8678 16.6013 54.5816C16.621 54.5605 16.6333 54.5336 16.6364 54.505C16.6396 54.4764 16.6335 54.4475 16.619 54.4226C16.4494 54.0234 16.2834 53.6206 16.1209 53.2178C16.1152 53.1891 16.0998 53.1633 16.0772 53.1446C16.0547 53.126 16.0265 53.1156 15.9972 53.1154C15.6439 53.0588 15.2906 52.9953 14.9161 52.9281C14.7916 52.9085 14.6786 52.8442 14.598 52.7474C14.5174 52.6505 14.4747 52.5277 14.478 52.4017C14.478 51.9777 14.478 51.5538 14.478 51.1333C14.475 51.0073 14.5182 50.8844 14.5996 50.7881C14.681 50.6918 14.7948 50.6286 14.9196 50.6105C15.3083 50.5363 15.6969 50.4727 16.0573 50.4091C16.2233 50.0098 16.3682 49.6212 16.5519 49.2467C16.5969 49.1854 16.6185 49.11 16.6126 49.0341C16.6068 48.9583 16.574 48.8871 16.5201 48.8333C16.3328 48.6072 16.1668 48.3564 16.0043 48.1267C15.9577 48.0716 15.9224 48.0078 15.9006 47.939C15.8787 47.8703 15.8707 47.7978 15.8769 47.7259C15.8832 47.654 15.9036 47.584 15.9369 47.52C15.9703 47.456 16.016 47.3993 16.0714 47.353L16.8981 46.5263C16.9918 46.4181 17.1241 46.3508 17.2667 46.3389C17.4094 46.327 17.551 46.3715 17.6613 46.4627L18.5869 47.1198C19.0006 46.8834 19.4421 46.6995 19.9012 46.5722C19.9191 46.5615 19.9347 46.5471 19.9469 46.5301C19.959 46.5131 19.9675 46.4937 19.9719 46.4733C20.0354 46.12 20.092 45.7667 20.1556 45.3922C20.1737 45.2646 20.238 45.148 20.3364 45.0647C20.4347 44.9813 20.5602 44.9369 20.6891 44.9399C21.106 44.9399 21.5264 44.9399 21.9433 44.9399C22.079 44.9358 22.2112 44.9835 22.313 45.0735C22.4148 45.1634 22.4784 45.2887 22.4909 45.424C22.5545 45.7985 22.6216 46.173 22.6852 46.5439C22.9219 46.6287 23.1586 46.7029 23.3918 46.7983C23.625 46.8937 23.8405 47.0068 24.0666 47.1128L24.9782 46.4662C25.0331 46.4192 25.0968 46.3836 25.1657 46.3614C25.2345 46.3393 25.3071 46.3312 25.3791 46.3374C25.4511 46.3437 25.5212 46.3642 25.5852 46.3978C25.6492 46.4315 25.7059 46.4776 25.7519 46.5333C26.0275 46.8089 26.3066 47.081 26.5786 47.3601C26.6882 47.4527 26.7567 47.5849 26.7693 47.7278C26.7818 47.8707 26.7374 48.0129 26.6457 48.1232C26.4302 48.4306 26.2112 48.7344 25.9886 49.0489C26.2258 49.4621 26.4098 49.9037 26.5362 50.3631C26.5449 50.3803 26.5574 50.3952 26.5727 50.4068C26.588 50.4185 26.6057 50.4265 26.6245 50.4303C26.9778 50.4903 27.3064 50.5504 27.6491 50.6034C27.7295 50.6076 27.8081 50.6284 27.88 50.6643C27.952 50.7002 28.0158 50.7505 28.0675 50.8122C28.1192 50.8738 28.1577 50.9454 28.1805 51.0226C28.2034 51.0997 28.2101 51.1807 28.2003 51.2605C28.1826 51.6315 28.2003 52.0025 28.2003 52.377C28.2113 52.5146 28.1684 52.6512 28.0808 52.758C27.9932 52.8647 27.8676 52.9333 27.7304 52.9493C27.3523 53.02 26.9708 53.08 26.6104 53.1436C26.4912 53.5064 26.3472 53.8606 26.1794 54.2035C26.1057 54.298 26.0706 54.4169 26.0811 54.5362C26.0916 54.6555 26.1469 54.7664 26.2359 54.8466C26.393 55.0397 26.5392 55.2414 26.674 55.4507C26.7206 55.5058 26.7558 55.5696 26.7777 55.6384C26.7995 55.7072 26.8076 55.7796 26.8013 55.8515C26.7951 55.9234 26.7747 55.9934 26.7413 56.0574C26.708 56.1214 26.6623 56.1782 26.6069 56.2244C26.3313 56.5035 26.0557 56.7791 25.7766 57.0512C25.7311 57.1054 25.6752 57.1502 25.6123 57.1828C25.5494 57.2154 25.4807 57.2352 25.4101 57.2411C25.3395 57.247 25.2684 57.2389 25.2009 57.2172C25.1335 57.1955 25.071 57.1607 25.017 57.1148L24.1232 56.4823L22.7099 57.0618C22.6499 57.3939 22.5898 57.7684 22.5227 58.1217C22.5006 58.2674 22.4265 58.4002 22.3142 58.4956C22.2019 58.5911 22.0589 58.6427 21.9115 58.641C21.5299 58.641 21.1484 58.641 20.7668 58.641C20.6288 58.6434 20.4942 58.5978 20.386 58.5122C20.2778 58.4265 20.2026 58.306 20.1732 58.1711C20.1061 57.7507 20.0602 57.3656 19.9825 57.0123ZM21.3603 49.4234C20.8971 49.4227 20.4442 49.5595 20.0589 49.8166C19.6736 50.0736 19.3732 50.4393 19.196 50.8672C19.0187 51.2951 18.9725 51.766 19.0632 52.2203C19.154 52.6745 19.3775 53.0915 19.7055 53.4186C20.0335 53.7456 20.4513 53.9678 20.9057 54.0572C21.3602 54.1465 21.831 54.0989 22.2584 53.9203C22.6858 53.7418 23.0505 53.4404 23.3064 53.0543C23.5623 52.6682 23.6978 52.2148 23.6957 51.7516C23.691 51.1343 23.4433 50.5438 23.0061 50.1079C22.569 49.6721 21.9776 49.4261 21.3603 49.4234Z" fill="white"/>
<path d="M45.262 51.7905H47.5655V54.034C47.5267 54.034 47.4843 54.034 47.4419 54.034H45.7142C45.6153 54.034 45.5694 54.0128 45.5376 53.9068C45.3643 53.2418 45.2694 52.5588 45.2549 51.8718C45.2549 51.8577 45.2585 51.8294 45.262 51.7905Z" fill="white"/>
<path d="M50.1158 51.7905C50.0487 52.3311 49.9922 52.8504 49.918 53.3769C49.8859 53.5719 49.8398 53.7643 49.7802 53.9527C49.771 53.9749 49.7565 53.9946 49.7381 54.01C49.7196 54.0254 49.6977 54.036 49.6742 54.0411H47.7982C47.7982 54.0411 47.7805 54.0411 47.7628 54.0411V51.8047L50.1158 51.7905Z" fill="white"/>
<path d="M50.0917 51.5923H47.7776V49.3489C47.8164 49.3489 47.8588 49.3489 47.9012 49.3489C48.4771 49.3489 49.053 49.3489 49.6289 49.3489C49.7419 49.3489 49.7808 49.3842 49.8091 49.4902C49.9806 50.1459 50.0755 50.8194 50.0917 51.497V51.5923Z" fill="white"/>
<path d="M45.2507 51.5926C45.2568 50.8593 45.359 50.13 45.5546 49.4233C45.5629 49.4032 45.5759 49.3853 45.5925 49.3712C45.6091 49.3571 45.6288 49.3471 45.65 49.342H47.5649V51.5961L45.2507 51.5926Z" fill="white"/>
<path d="M45.3327 54.0413H43.7004C43.6569 54.0466 43.6128 54.0378 43.5746 54.0162C43.5365 53.9945 43.5063 53.9612 43.4884 53.9212C43.1567 53.294 42.9662 52.6018 42.9302 51.8932V51.7837H45.0253L45.3327 54.0413Z" fill="white"/>
<path d="M49.9991 54.0412L50.31 51.7942H52.4298C52.3839 52.1086 52.3521 52.4231 52.292 52.7304C52.2035 53.1576 52.0473 53.5679 51.8292 53.9458C51.8143 53.9712 51.7938 53.993 51.7694 54.0095C51.7449 54.026 51.7171 54.0368 51.6879 54.0412C51.1367 54.0412 50.5856 54.0412 50.0344 54.0412H49.9991Z" fill="white"/>
<path d="M45.3357 49.339L45.0248 51.5966H42.905C42.9297 51.3669 42.9403 51.1408 42.9756 50.9218C43.0625 50.4091 43.2319 49.914 43.4773 49.4556C43.4924 49.4173 43.5195 49.3849 43.5545 49.3632C43.5895 49.3416 43.6306 49.3318 43.6716 49.3355C44.1874 49.3355 44.7033 49.3355 45.2191 49.3355L45.3357 49.339Z" fill="white"/>
<path d="M50.3065 51.5895L49.9991 49.339H51.6596C51.6867 49.338 51.7136 49.3428 51.7386 49.3531C51.7637 49.3635 51.7861 49.3792 51.8045 49.3991C52.1829 50.0666 52.387 50.8188 52.398 51.586L50.3065 51.5895Z" fill="white"/>
<path d="M45.6255 54.2322H47.5687V56.4085C47.3123 56.3858 47.0675 56.2915 46.8621 56.1365C46.4311 55.7996 46.095 55.3564 45.887 54.8505C45.7881 54.6526 45.7139 54.4512 45.6255 54.2322Z" fill="white"/>
<path d="M47.7628 56.4015V54.2322H49.7025C49.4991 54.9549 49.0919 55.6038 48.5295 56.1011C48.3132 56.2817 48.0442 56.3871 47.7628 56.4015Z" fill="white"/>
<path d="M47.5725 46.979V49.1518H45.6329C45.8364 48.4265 46.2464 47.7759 46.8129 47.2793C47.03 47.1047 47.2948 47 47.5725 46.979Z" fill="white"/>
<path d="M47.767 46.979C48.1011 47.0091 48.4144 47.1539 48.6538 47.3888C49.085 47.8071 49.4107 48.3217 49.6042 48.8904C49.636 48.9646 49.6607 49.0388 49.6855 49.113C49.6855 49.113 49.6855 49.1306 49.6855 49.1518H47.767V46.979Z" fill="white"/>
<path d="M43.9151 47.0033C43.9144 47.1932 43.8575 47.3787 43.7515 47.5363C43.6454 47.6938 43.4951 47.8165 43.3195 47.8886C43.1438 47.9608 42.9507 47.9794 42.7645 47.9419C42.5783 47.9044 42.4074 47.8126 42.2734 47.6781C42.1394 47.5435 42.0482 47.3723 42.0114 47.186C41.9746 46.9997 41.9938 46.8066 42.0667 46.6312C42.1395 46.4558 42.2627 46.306 42.4206 46.2005C42.5786 46.0951 42.7642 46.0388 42.9541 46.0388C43.0806 46.0388 43.2059 46.0638 43.3227 46.1123C43.4395 46.1608 43.5456 46.2319 43.6349 46.3215C43.7242 46.4111 43.7949 46.5175 43.843 46.6345C43.8911 46.7515 43.9156 46.8768 43.9151 47.0033Z" fill="white"/>
<path d="M53.3382 46.9999C53.3382 47.1898 53.2819 47.3754 53.1765 47.5334C53.0711 47.6913 52.9212 47.8145 52.7458 47.8873C52.5704 47.9602 52.3774 47.9794 52.191 47.9426C52.0047 47.9058 51.8335 47.8147 51.699 47.6806C51.5644 47.5466 51.4726 47.3757 51.4351 47.1895C51.3977 47.0033 51.4162 46.8102 51.4884 46.6345C51.5606 46.4589 51.6832 46.3086 51.8408 46.2025C51.9983 46.0965 52.1838 46.0396 52.3737 46.0389C52.5004 46.0375 52.6262 46.0613 52.7436 46.1091C52.8611 46.1568 52.9678 46.2275 53.0576 46.317C53.1474 46.4064 53.2185 46.5129 53.2667 46.6302C53.3148 46.7474 53.3392 46.8731 53.3382 46.9999Z" fill="white"/>
<path d="M53.3382 56.3875C53.3382 56.5776 53.2818 56.7634 53.1763 56.9214C53.0707 57.0794 52.9206 57.2026 52.745 57.2753C52.5694 57.3481 52.3762 57.3671 52.1897 57.33C52.0033 57.2929 51.8321 57.2014 51.6977 57.067C51.5633 56.9326 51.4718 56.7614 51.4347 56.575C51.3976 56.3886 51.4167 56.1954 51.4894 56.0198C51.5621 55.8442 51.6853 55.6941 51.8433 55.5885C52.0014 55.4829 52.1872 55.4265 52.3772 55.4265C52.5036 55.4261 52.6287 55.4506 52.7455 55.4987C52.8623 55.5469 52.9685 55.6176 53.0578 55.7069C53.1471 55.7963 53.2179 55.9024 53.266 56.0192C53.3141 56.136 53.3387 56.2612 53.3382 56.3875Z" fill="white"/>
<path d="M43.9151 56.383C43.9158 56.5731 43.8602 56.7591 43.7551 56.9175C43.6501 57.0759 43.5005 57.1996 43.3252 57.273C43.1498 57.3464 42.9567 57.3661 42.7701 57.3297C42.5836 57.2933 42.412 57.2025 42.2771 57.0686C42.1423 56.9347 42.0501 56.7638 42.0123 56.5775C41.9746 56.3912 41.9929 56.1979 42.065 56.0221C42.1371 55.8462 42.2597 55.6957 42.4173 55.5895C42.575 55.4833 42.7606 55.4263 42.9506 55.4256C43.077 55.4246 43.2022 55.4487 43.3192 55.4964C43.4362 55.5441 43.5426 55.6145 43.6322 55.7035C43.7219 55.7925 43.793 55.8983 43.8416 56.015C43.8902 56.1316 43.9151 56.2567 43.9151 56.383Z" fill="white"/>
<path d="M48.5441 56.3238C48.937 56.0297 49.2553 55.6472 49.4732 55.2074C49.6181 54.9247 49.7276 54.628 49.8513 54.3383C49.8795 54.2676 49.9007 54.2217 49.9926 54.2217H51.5895H51.6319C51.3917 55.0095 49.6464 56.2072 48.5441 56.3238Z" fill="white"/>
<path d="M46.6641 56.3058C45.8021 56.2775 44.0709 55.101 43.6893 54.2213H43.8695C44.3465 54.2213 44.8234 54.2213 45.3004 54.2213C45.3433 54.215 45.387 54.2254 45.4225 54.2504C45.458 54.2754 45.4826 54.313 45.4912 54.3555C45.6707 54.9337 45.9651 55.4696 46.3568 55.9313C46.4804 56.069 46.5899 56.2174 46.6641 56.3058Z" fill="white"/>
<path d="M46.6782 47.0706C46.5934 47.173 46.4697 47.3249 46.3249 47.4733C45.9443 47.9259 45.6573 48.4495 45.4805 49.0137C45.477 49.0372 45.469 49.0597 45.4568 49.08C45.4446 49.1003 45.4286 49.1181 45.4095 49.1322C45.3905 49.1463 45.3689 49.1565 45.3459 49.1623C45.3229 49.168 45.299 49.1691 45.2756 49.1656C44.7456 49.1656 44.2157 49.1656 43.6504 49.1656C43.9905 48.6327 44.4334 48.1729 44.9533 47.8132C45.4732 47.4534 46.0596 47.201 46.6782 47.0706Z" fill="white"/>
<path d="M51.6562 49.1622H50.3878C50.2289 49.1622 50.0345 49.2117 49.9215 49.141C49.8084 49.0704 49.7908 48.869 49.7307 48.7241C49.5065 48.0947 49.1173 47.537 48.6037 47.1096C48.5856 47.102 48.5697 47.0898 48.5577 47.0742C49.1909 47.188 49.7934 47.4324 50.3268 47.7919C50.8603 48.1514 51.313 48.6181 51.6562 49.1622Z" fill="white"/>
<path d="M51.4094 57.1396L51.5931 57.3375C50.4418 58.1441 49.0701 58.5768 47.6644 58.5768C46.2586 58.5768 44.887 58.1441 43.7357 57.3375L43.9264 57.1396C46.4172 58.6765 48.9009 58.6801 51.4094 57.1396Z" fill="white"/>
<path d="M53.3204 55.5991L53.1367 55.3977C54.6276 52.9316 54.6076 50.4691 53.0766 48.0101L53.2709 47.8264C54.0771 48.9598 54.5144 50.3141 54.5232 51.7049C54.5321 53.0958 54.1121 54.4555 53.3204 55.5991Z" fill="white"/>
<path d="M42.216 55.3911L42.0076 55.589C41.2183 54.4483 40.7987 53.0925 40.8056 51.7054C40.8126 50.3182 41.2458 48.9667 42.0465 47.834L42.269 48.0177C41.5168 49.0977 41.1092 50.3801 41.0998 51.6962C41.0903 53.0123 41.4795 54.3004 42.216 55.3911Z" fill="white"/>
<path d="M51.5333 46.1094L51.3566 46.3108C48.8835 44.8234 46.4457 44.8269 43.9762 46.3108L43.803 46.1129C44.94 45.3305 46.2875 44.9113 47.6676 44.9106C49.0478 44.91 50.3956 45.328 51.5333 46.1094Z" fill="white"/>
<path d="M59.1601 27.7484H59.4745C60.4708 27.7484 61.4672 27.7484 62.4599 27.7484C62.6175 27.7356 62.7749 27.7759 62.9068 27.863C63.0387 27.9501 63.1377 28.079 63.1877 28.2289C63.6294 29.2571 64.0816 30.2816 64.5161 31.3133C64.5799 31.4748 64.6029 31.6495 64.5833 31.822C64.442 33.2352 64.283 34.6485 64.1381 36.0617C64.0745 36.6623 63.8767 36.8566 63.2831 36.8566C62.9793 36.8566 62.6754 36.8566 62.3681 36.8566C62.3171 36.8501 62.2654 36.8618 62.2221 36.8895C62.1788 36.9173 62.1467 36.9594 62.1314 37.0085C62.004 37.2946 61.8087 37.5451 61.5624 37.7385C61.3161 37.9318 61.0263 38.0621 60.7181 38.1179C60.3219 38.2031 59.9081 38.1369 59.5582 37.9322C59.2084 37.7275 58.9478 37.3992 58.828 37.012C58.828 36.9661 58.7962 36.9202 58.775 36.8601H58.5842C57.0897 36.8601 55.5988 36.8601 54.1043 36.8601C54.0473 36.8533 53.9897 36.8664 53.9414 36.8974C53.893 36.9283 53.857 36.9751 53.8393 37.0297C53.7386 37.2592 53.5925 37.4659 53.41 37.6375C53.2274 37.8092 53.012 37.9422 52.7768 38.0286C52.5416 38.1151 52.2914 38.1531 52.0411 38.1405C51.7908 38.1279 51.5457 38.065 51.3203 37.9554C51.1168 37.8376 50.9388 37.6803 50.7968 37.4929C50.6549 37.3054 50.5518 37.0915 50.4936 36.8637H48.7271C48.6023 36.8706 48.4783 36.8408 48.3703 36.778C48.2623 36.7152 48.1751 36.6222 48.1194 36.5104C48.0682 36.4154 48.0417 36.309 48.0424 36.2011C48.0431 36.0932 48.071 35.9872 48.1234 35.8928C48.1759 35.7985 48.2512 35.7189 48.3425 35.6614C48.4338 35.6038 48.5381 35.5702 48.6458 35.5635C48.8648 35.5635 49.0839 35.5635 49.3029 35.5635C49.4753 35.5635 49.6407 35.495 49.7626 35.3731C49.8845 35.2512 49.953 35.0858 49.953 34.9134C49.953 34.741 49.8845 34.5757 49.7626 34.4538C49.6407 34.3318 49.4753 34.2634 49.3029 34.2634C48.8966 34.2634 48.4903 34.2634 48.0876 34.2634C47.9152 34.2634 47.7498 34.1949 47.6279 34.0729C47.506 33.951 47.4375 33.7857 47.4375 33.6133C47.4375 33.4409 47.506 33.2755 47.6279 33.1536C47.7498 33.0317 47.9152 32.9632 48.0876 32.9632H53.0868C53.1962 32.9702 53.3056 32.9492 53.4046 32.9024C53.5037 32.8555 53.5892 32.7842 53.6531 32.6951C53.7171 32.6061 53.7573 32.5023 53.7701 32.3935C53.7829 32.2846 53.7678 32.1743 53.7263 32.0729C53.679 31.9464 53.5924 31.8383 53.4792 31.7646C53.3661 31.6908 53.2323 31.6552 53.0974 31.663H50.6243C50.5109 31.6653 50.399 31.6376 50.2997 31.5829C50.2004 31.5282 50.1172 31.4484 50.0585 31.3514C49.9999 31.2544 49.9677 31.1437 49.9653 31.0303C49.9629 30.917 49.9903 30.805 50.0449 30.7056C50.0999 30.5932 50.1869 30.4996 50.2951 30.4367C50.4033 30.3738 50.5277 30.3445 50.6526 30.3523H54.9735C55.0645 30.3618 55.1566 30.3521 55.2436 30.3237C55.3307 30.2954 55.4108 30.2491 55.4788 30.1878C55.5469 30.1265 55.6012 30.0516 55.6385 29.968C55.6757 29.8843 55.6949 29.7938 55.6949 29.7022C55.6949 29.6107 55.6757 29.5201 55.6385 29.4365C55.6012 29.3528 55.5469 29.2779 55.4788 29.2166C55.4108 29.1554 55.3307 29.109 55.2436 29.0807C55.1566 29.0524 55.0645 29.0426 54.9735 29.0521H48.826C48.7344 29.0628 48.642 29.0628 48.5504 29.0521C48.3958 29.0152 48.2602 28.9229 48.169 28.7927C48.0779 28.6625 48.0376 28.5034 48.0558 28.3455C48.0733 28.1869 48.1492 28.0405 48.2687 27.9347C48.3882 27.8289 48.5428 27.7713 48.7023 27.7732H52.4438C52.6699 27.7732 52.896 27.7732 53.1221 27.7732C53.2945 27.7732 53.4599 27.7047 53.5818 27.5828C53.7037 27.4609 53.7722 27.2955 53.7722 27.1231C53.7722 26.9507 53.7037 26.7853 53.5818 26.6634C53.4599 26.5415 53.2945 26.473 53.1221 26.473C52.0799 26.473 51.0412 26.473 49.9989 26.473C49.8898 26.4767 49.7815 26.4528 49.6842 26.4033C49.5868 26.3539 49.5036 26.2806 49.4422 26.1903C49.3808 26.1 49.3433 25.9956 49.3332 25.8869C49.323 25.7782 49.3406 25.6687 49.3842 25.5686C49.4219 25.4499 49.4949 25.3454 49.5933 25.2691C49.6917 25.1927 49.811 25.1481 49.9354 25.1411C49.9954 25.1375 50.0555 25.1375 50.1155 25.1411H58.616C59.1813 25.1411 59.4286 25.4167 59.3721 25.9961C59.3155 26.5755 59.2272 27.1443 59.1601 27.7484ZM63.3079 32.299C63.3434 32.0968 63.3434 31.89 63.3079 31.6878C62.9546 30.8363 62.5765 29.999 62.1985 29.1581C62.1848 29.131 62.1648 29.1076 62.1402 29.0898C62.1156 29.072 62.0872 29.0603 62.0572 29.0557C61.5873 29.0557 61.1138 29.0557 60.644 29.0557C60.491 29.0588 60.3447 29.1188 60.2337 29.2239C60.1226 29.3291 60.0547 29.4719 60.0433 29.6245C59.9656 30.2816 59.8914 30.9388 59.8278 31.5959C59.8159 31.6826 59.8223 31.7709 59.8468 31.855C59.8713 31.939 59.9133 32.0169 59.97 32.0836C60.0267 32.1503 60.0969 32.2043 60.1759 32.242C60.2549 32.2797 60.3409 32.3004 60.4284 32.3025C61.3576 32.3061 62.2974 32.299 63.3079 32.299ZM52.8077 36.0617C52.8077 35.7402 52.6099 35.514 52.3519 35.5564C52.1506 35.6 51.9734 35.7183 51.856 35.8875C51.7386 36.0567 51.6898 36.2642 51.7195 36.468C51.72 36.5348 51.7373 36.6005 51.77 36.6589C51.8027 36.7172 51.8496 36.7663 51.9064 36.8016C51.9633 36.8369 52.0281 36.8572 52.0949 36.8606C52.1616 36.8641 52.2282 36.8505 52.2883 36.8213C52.4421 36.7628 52.5743 36.6587 52.6672 36.5229C52.76 36.3871 52.8091 36.2262 52.8077 36.0617ZM59.9939 36.3584C59.9939 36.6587 60.1882 36.8743 60.4284 36.846C60.5353 36.8251 60.6368 36.7829 60.727 36.722C60.8172 36.661 60.8943 36.5826 60.9536 36.4913C61.0129 36.4 61.0533 36.2978 61.0723 36.1906C61.0914 36.0834 61.0887 35.9735 61.0644 35.8673C61.0542 35.8097 61.0308 35.7553 60.9962 35.7081C60.9616 35.661 60.9166 35.6224 60.8647 35.5955C60.8128 35.5685 60.7553 35.5538 60.6968 35.5525C60.6384 35.5513 60.5804 35.5635 60.5274 35.5882C60.3667 35.6422 60.2273 35.746 60.1295 35.8844C60.0317 36.0229 59.9805 36.1889 59.9833 36.3584H59.9939Z" fill="white"/>
<path d="M47.7307 31.6489H47.3774C47.2118 31.6399 47.0559 31.5679 46.9416 31.4477C46.8273 31.3276 46.7633 31.1682 46.7627 31.0024C46.7606 30.836 46.8232 30.6753 46.9372 30.5541C47.0512 30.4328 47.2077 30.3605 47.3739 30.3523C47.6035 30.3523 47.8367 30.3523 48.0805 30.3523C48.252 30.3523 48.4164 30.4204 48.5377 30.5417C48.6589 30.6629 48.727 30.8274 48.727 30.9988C48.727 31.1703 48.6589 31.3348 48.5377 31.456C48.4164 31.5773 48.252 31.6454 48.0805 31.6454C47.971 31.6524 47.8508 31.6489 47.7307 31.6489Z" fill="white"/>
<path d="M38.1495 13.2032C38.1804 13.227 38.2183 13.2399 38.2572 13.2399C38.2962 13.2399 38.3341 13.227 38.365 13.2032C38.9974 12.8499 39.6334 12.4683 40.2693 12.1009L40.7109 11.843L39.6051 11.2035L34.6306 8.32764H34.5175L32.5143 9.49354L32.6238 9.57126C34.4681 10.7843 36.31 11.9949 38.1495 13.2032Z" fill="white"/>
<path d="M34.2918 15.6756L28.3882 12.2698L28.2539 12.2026C28.2539 12.2627 28.2539 12.3051 28.2539 12.3475V19.0638C28.2476 19.1248 28.2606 19.1862 28.291 19.2394C28.3214 19.2927 28.3678 19.335 28.4235 19.3605L34.2495 22.7205L34.3872 22.7947C34.3872 22.7381 34.3872 22.6993 34.3872 22.6569C34.3872 20.3851 34.3872 18.1099 34.3872 15.8381C34.3883 15.8048 34.3799 15.7718 34.363 15.7431C34.3461 15.7143 34.3215 15.6909 34.2918 15.6756Z" fill="white"/>
<path d="M40.905 12.3304C40.905 12.2845 40.905 12.2421 40.905 12.1926L40.8449 12.2138C40.0677 12.659 39.294 13.1041 38.5238 13.5564C38.5015 13.5738 38.4831 13.5957 38.4697 13.6207C38.4563 13.6456 38.4483 13.673 38.446 13.7012C38.446 14.0298 38.446 14.3548 38.4284 14.6834C38.4323 14.73 38.4227 14.7768 38.4008 14.8182C38.3789 14.8595 38.3455 14.8937 38.3047 14.9166C37.9019 15.1462 37.5027 15.3829 37.0964 15.6232C37.062 15.6388 37.0247 15.6469 36.9869 15.6469C36.9491 15.6469 36.9118 15.6388 36.8774 15.6232C36.8264 15.5644 36.7987 15.489 36.7996 15.4112C36.7996 15.1356 36.7996 14.8601 36.7996 14.5704L36.6618 14.641C36.0754 14.9943 35.4924 15.3194 34.8953 15.655C34.8519 15.6754 34.816 15.7088 34.7925 15.7506C34.7691 15.7924 34.7593 15.8405 34.7646 15.8882C34.7646 18.1422 34.7646 20.3963 34.7646 22.6504V22.8129C34.7906 22.8041 34.8155 22.7922 34.8388 22.7776L40.7637 19.3611C40.8131 19.3336 40.8532 19.2921 40.8789 19.2418C40.9047 19.1915 40.915 19.1346 40.9085 19.0785C40.9062 16.8221 40.905 14.5727 40.905 12.3304Z" fill="white"/>
<path d="M36.6165 14.2128L36.5635 14.1669C34.6958 12.9421 32.8291 11.7161 30.9637 10.489C30.9386 10.4689 30.9075 10.458 30.8754 10.458C30.8433 10.458 30.8121 10.4689 30.787 10.489L29.0205 11.5101L28.4482 11.8422L28.5365 11.9058L34.4861 15.3399C34.5156 15.3622 34.5516 15.3743 34.5886 15.3743C34.6256 15.3743 34.6616 15.3622 34.691 15.3399L36.4964 14.28L36.6165 14.2128Z" fill="white"/>
<path d="M36.9445 13.9731C37.0195 14.0117 37.0807 14.0724 37.1199 14.147C37.1591 14.2216 37.1744 14.3065 37.1636 14.39C37.1459 14.6303 37.1636 14.8741 37.1636 15.1426C37.4427 14.9801 37.6971 14.8317 37.955 14.6868C37.9874 14.6731 38.0144 14.649 38.0316 14.6183C38.0489 14.5876 38.0555 14.5521 38.0504 14.5172C38.0504 14.2593 38.0504 13.9979 38.0504 13.7364C38.0558 13.6905 38.0472 13.644 38.0258 13.603C38.0044 13.5621 37.9711 13.5285 37.9302 13.5068C37.054 12.938 36.1637 12.3621 35.3052 11.7897L32.2421 9.77944C32.182 9.74058 32.1361 9.69819 32.0548 9.75118C31.7863 9.9137 31.5143 10.0656 31.2246 10.2317L31.3977 10.3483C33.2608 11.5566 35.1097 12.7649 36.9445 13.9731Z" fill="white"/>
<path d="M29.7518 17.4006L30.1051 17.1815C30.1439 17.1568 30.1934 17.1462 30.2358 17.1215C30.2461 17.1147 30.2549 17.1059 30.2616 17.0955C30.2683 17.0852 30.2727 17.0736 30.2747 17.0614C30.2747 16.8318 30.2747 16.5986 30.2747 16.3548C30.2734 16.3304 30.2648 16.307 30.2499 16.2877C30.1687 16.1817 30.0839 16.0792 30.0061 15.9732C29.9872 15.9435 29.9763 15.9095 29.9743 15.8743C29.9743 15.6977 29.9743 15.521 29.9743 15.3479C29.9776 15.3311 29.9742 15.3136 29.9651 15.2992C29.9559 15.2847 29.9415 15.2744 29.9249 15.2702C29.8617 15.2467 29.8073 15.2042 29.7693 15.1485C29.7313 15.0928 29.7116 15.0267 29.7129 14.9593C29.7067 14.8897 29.7234 14.8199 29.7603 14.7607C29.7973 14.7014 29.8526 14.6557 29.9178 14.6307C29.9796 14.5991 30.0498 14.5879 30.1184 14.5987C30.1869 14.6095 30.2503 14.6417 30.2994 14.6907C30.3405 14.73 30.3715 14.7787 30.3897 14.8325C30.408 14.8863 30.413 14.9438 30.4043 14.9999C30.3957 15.0561 30.3736 15.1094 30.3399 15.1552C30.3063 15.201 30.2621 15.238 30.2111 15.2631C30.1906 15.2695 30.173 15.283 30.1614 15.301C30.1497 15.3191 30.1448 15.3407 30.1475 15.362C30.1475 15.5104 30.1475 15.6588 30.1475 15.8107C30.1501 15.8501 30.1636 15.888 30.1863 15.9202C30.2535 16.0156 30.3276 16.1075 30.4018 16.1993C30.435 16.2374 30.4527 16.2866 30.4513 16.3371C30.4513 16.5491 30.4513 16.7576 30.4513 16.966V17.0402C30.6742 16.9989 30.9034 17.0073 31.1226 17.0649C31.1226 17.0402 31.1226 17.019 31.1226 16.9978C31.1226 16.7646 31.1226 16.5279 31.1226 16.2912C31.1228 16.2388 31.1402 16.188 31.172 16.1464C31.3098 15.9768 31.4405 15.793 31.5713 15.6305C31.5894 15.6073 31.5993 15.5787 31.5995 15.5493C31.5995 15.4857 31.5995 15.4221 31.5995 15.362C31.6039 15.341 31.6002 15.3191 31.589 15.3007C31.5779 15.2824 31.5602 15.2689 31.5395 15.2631C31.4777 15.2217 31.4305 15.1619 31.4047 15.0922C31.3788 15.0224 31.3757 14.9463 31.3956 14.8746C31.4156 14.803 31.4577 14.7395 31.5159 14.6931C31.574 14.6468 31.6454 14.62 31.7197 14.6166C31.7958 14.6255 31.8669 14.6589 31.9223 14.7118C31.9778 14.7647 32.0145 14.8342 32.027 14.9098C32.0384 14.9843 32.0257 15.0604 31.9908 15.1272C31.9558 15.1939 31.9004 15.2477 31.8327 15.2808C31.8213 15.2833 31.8105 15.288 31.801 15.2947C31.7914 15.3014 31.7833 15.3099 31.7771 15.3198C31.7708 15.3296 31.7666 15.3406 31.7646 15.3521C31.7627 15.3636 31.763 15.3754 31.7656 15.3868C31.7812 15.4825 31.7729 15.5807 31.7415 15.6725C31.71 15.7644 31.6564 15.847 31.5854 15.9132C31.4925 16.0192 31.4052 16.13 31.324 16.2453C31.3053 16.2711 31.2942 16.3018 31.2922 16.3336C31.2922 16.588 31.2922 16.8424 31.2922 17.0967C31.2904 17.1107 31.2927 17.1249 31.299 17.1375C31.3053 17.1501 31.3152 17.1605 31.3275 17.1674C31.4476 17.2416 31.5607 17.3193 31.6808 17.397H31.7055C31.7515 17.344 31.7974 17.2946 31.8398 17.2416C31.8822 17.1886 31.9493 17.1038 32.0094 17.0402C32.0273 17.0231 32.0411 17.0021 32.0497 16.9788C32.0583 16.9555 32.0614 16.9306 32.0588 16.906C32.0588 16.8212 32.0588 16.7328 32.0588 16.648C32.061 16.6331 32.0575 16.618 32.049 16.6055C32.0405 16.5931 32.0276 16.5843 32.0129 16.5809C31.9479 16.5566 31.8921 16.5125 31.8535 16.4548C31.8148 16.3971 31.7952 16.3288 31.7974 16.2594C31.7936 16.1879 31.8133 16.117 31.8535 16.0577C31.8936 15.9984 31.9521 15.9538 32.02 15.9308C32.101 15.9092 32.187 15.9171 32.2627 15.9531C32.3384 15.989 32.3989 16.0507 32.4333 16.1272C32.4677 16.2036 32.4738 16.2898 32.4505 16.3704C32.4272 16.4509 32.3761 16.5205 32.3061 16.5668C32.2815 16.5735 32.2602 16.5891 32.2464 16.6107C32.2327 16.6323 32.2275 16.6582 32.232 16.6834C32.239 16.7822 32.239 16.8813 32.232 16.9801C32.2277 17.0263 32.2106 17.0704 32.1825 17.1073C32.08 17.2381 31.967 17.3652 31.8575 17.4924C31.8327 17.5207 31.8292 17.5384 31.8575 17.5702C32.0146 17.7731 32.1135 18.015 32.1435 18.27C32.1736 18.5249 32.1336 18.7831 32.028 19.0171C31.9223 19.251 31.755 19.4517 31.5438 19.5977C31.3327 19.7437 31.0858 19.8295 30.8297 19.8457C30.5735 19.862 30.3177 19.8082 30.0898 19.6901C29.8619 19.572 29.6705 19.3941 29.5361 19.1754C29.4017 18.9567 29.3294 18.7056 29.3269 18.4489C29.3244 18.1923 29.3919 17.9398 29.5221 17.7185C29.5498 17.6677 29.5817 17.6192 29.6175 17.5737C29.6234 17.5687 29.6282 17.5625 29.6315 17.5555C29.6348 17.5485 29.6365 17.5408 29.6365 17.5331C29.6365 17.5253 29.6348 17.5177 29.6315 17.5106C29.6282 17.5036 29.6234 17.4974 29.6175 17.4924C29.508 17.3688 29.402 17.2381 29.2889 17.1144C29.254 17.0743 29.2351 17.0227 29.2359 16.9695C29.2359 16.7611 29.2359 16.5526 29.2359 16.3407C29.2383 16.323 29.2343 16.3051 29.2246 16.2902C29.2148 16.2753 29.2001 16.2643 29.183 16.2594C29.0994 16.2228 29.0332 16.1553 28.9983 16.071C28.9634 15.9867 28.9625 15.8922 28.9957 15.8072C29.0173 15.7526 29.0521 15.7042 29.097 15.6664C29.142 15.6286 29.1956 15.6026 29.2532 15.5908C29.3107 15.5789 29.3702 15.5816 29.4265 15.5986C29.4827 15.6156 29.5338 15.6463 29.5751 15.688C29.6165 15.7297 29.6468 15.781 29.6634 15.8373C29.6799 15.8937 29.6821 15.9533 29.6699 16.0107C29.6576 16.0681 29.6312 16.1216 29.593 16.1662C29.5549 16.2109 29.5062 16.2453 29.4515 16.2665C29.4377 16.2698 29.4257 16.2782 29.4179 16.29C29.41 16.3018 29.4069 16.3161 29.4091 16.3301V16.9413C29.4038 16.9598 29.4038 16.9793 29.4091 16.9978C29.5292 17.1427 29.6422 17.2734 29.7518 17.4006ZM31.967 18.4393C31.967 18.1949 31.8945 17.9559 31.7588 17.7527C31.6231 17.5494 31.4302 17.3909 31.2044 17.2972C30.9787 17.2035 30.7302 17.1788 30.4905 17.2262C30.2507 17.2737 30.0304 17.3911 29.8573 17.5637C29.6842 17.7362 29.5662 17.9563 29.518 18.1959C29.4699 18.4355 29.4939 18.684 29.587 18.9101C29.68 19.1361 29.838 19.3294 30.0409 19.4657C30.2437 19.602 30.4825 19.6751 30.7269 19.6758C31.0552 19.6758 31.3701 19.5457 31.6025 19.3139C31.835 19.0821 31.966 18.7676 31.967 18.4393ZM29.879 14.9699C29.8794 14.9931 29.8844 15.0159 29.8937 15.0372C29.903 15.0584 29.9164 15.0777 29.9332 15.0937C29.9499 15.1098 29.9697 15.1224 29.9913 15.1309C30.0129 15.1393 30.0359 15.1434 30.0591 15.143C30.1051 15.1412 30.1486 15.1219 30.1808 15.089C30.213 15.0562 30.2314 15.0123 30.2323 14.9663C30.2323 14.9195 30.2136 14.8745 30.1805 14.8414C30.1474 14.8083 30.1025 14.7897 30.0556 14.7897C30.0088 14.7897 29.9638 14.8083 29.9307 14.8414C29.8976 14.8745 29.879 14.9195 29.879 14.9663V14.9699ZM29.4939 15.952C29.4939 15.9052 29.4752 15.8603 29.4421 15.8271C29.409 15.794 29.3641 15.7754 29.3172 15.7754C29.2704 15.7754 29.2254 15.794 29.1923 15.8271C29.1592 15.8603 29.1406 15.9052 29.1406 15.952C29.1406 15.9989 29.1592 16.0438 29.1923 16.0769C29.2254 16.1101 29.2704 16.1287 29.3172 16.1287C29.3641 16.1287 29.409 16.1101 29.4421 16.0769C29.4752 16.0438 29.4939 15.9989 29.4939 15.952ZM31.5077 14.9699C31.5072 14.9929 31.5113 15.0158 31.5198 15.0372C31.5283 15.0586 31.541 15.0781 31.5571 15.0946C31.5732 15.111 31.5925 15.1241 31.6137 15.133C31.635 15.1419 31.6578 15.1465 31.6808 15.1465C31.728 15.1465 31.7733 15.128 31.807 15.095C31.8407 15.062 31.8601 15.017 31.861 14.9699C31.861 14.923 31.8424 14.8781 31.8092 14.8449C31.7761 14.8118 31.7312 14.7932 31.6843 14.7932C31.6609 14.7922 31.6374 14.7961 31.6156 14.8046C31.5937 14.8131 31.5738 14.8261 31.5572 14.8427C31.5406 14.8593 31.5276 14.8792 31.5191 14.9011C31.5106 14.923 31.5067 14.9464 31.5077 14.9699ZM31.967 16.2665C31.966 16.2897 31.9697 16.3128 31.9777 16.3346C31.9857 16.3564 31.9979 16.3764 32.0137 16.3935C32.0294 16.4106 32.0484 16.4244 32.0695 16.4341C32.0906 16.4438 32.1134 16.4493 32.1366 16.4502C32.1834 16.4502 32.2283 16.4316 32.2615 16.3985C32.2946 16.3653 32.3132 16.3204 32.3132 16.2735C32.3132 16.2267 32.2946 16.1818 32.2615 16.1486C32.2283 16.1155 32.1834 16.0969 32.1366 16.0969C32.0933 16.0985 32.0521 16.1159 32.0208 16.1459C31.9896 16.1758 31.9704 16.2162 31.967 16.2594V16.2665Z" fill="#1C33FF"/>
<path d="M30.6594 17.796V17.6652C30.6594 17.6418 30.6687 17.6193 30.6853 17.6028C30.7019 17.5862 30.7243 17.5769 30.7478 17.5769C30.7712 17.5769 30.7936 17.5862 30.8102 17.6028C30.8268 17.6193 30.8361 17.6418 30.8361 17.6652C30.8361 17.7041 30.8361 17.743 30.8361 17.7818C30.8361 17.7818 30.9421 17.7818 31.0021 17.7818C31.0802 17.7828 31.1548 17.8144 31.2097 17.87C31.2646 17.9255 31.2954 18.0005 31.2954 18.0786C31.2954 18.1387 31.2671 18.1775 31.2176 18.1775C31.2065 18.179 31.1952 18.1783 31.1843 18.1753C31.1735 18.1724 31.1633 18.1673 31.1544 18.1604C31.1455 18.1535 31.1381 18.1449 31.1326 18.1351C31.1271 18.1253 31.1236 18.1145 31.1223 18.1033C31.1223 18.1033 31.1223 18.068 31.1223 18.0503C31.1187 18.0225 31.1047 17.9972 31.083 17.9794C31.0613 17.9617 31.0336 17.9529 31.0057 17.9549H30.4757C30.4472 17.953 30.4191 17.9622 30.3973 17.9807C30.3755 17.9992 30.3618 18.0254 30.3591 18.0539C30.3574 18.0797 30.3574 18.1057 30.3591 18.1316C30.3591 18.3294 30.3591 18.5273 30.3591 18.7251C30.3591 18.8559 30.398 18.8912 30.5287 18.8912H30.9845C31.0799 18.8912 31.1081 18.8665 31.1293 18.7711C31.1273 18.7582 31.1273 18.7451 31.1293 18.7322C31.135 18.7129 31.1474 18.6962 31.1643 18.6852C31.1812 18.6742 31.2014 18.6696 31.2214 18.6722C31.2413 18.6747 31.2598 18.6843 31.2733 18.6992C31.2869 18.7141 31.2947 18.7333 31.2954 18.7534C31.2977 18.793 31.2922 18.8326 31.279 18.87C31.2658 18.9073 31.2453 18.9417 31.2186 18.971C31.1919 19.0003 31.1597 19.024 31.1237 19.0406C31.0877 19.0572 31.0488 19.0665 31.0092 19.0678H30.8643C30.8337 19.0678 30.8196 19.082 30.8219 19.1102C30.8237 19.1432 30.8237 19.1762 30.8219 19.2092C30.8219 19.2317 30.813 19.2532 30.7971 19.2691C30.7812 19.285 30.7596 19.294 30.7372 19.294C30.7159 19.2922 30.6961 19.2825 30.6817 19.2668C30.6673 19.251 30.6594 19.2305 30.6594 19.2092C30.6578 19.2034 30.6578 19.1973 30.6594 19.1915C30.6594 19.0678 30.6594 19.0608 30.5358 19.0678C30.4877 19.075 30.4387 19.0708 30.3925 19.0556C30.3464 19.0403 30.3045 19.0145 30.2701 18.9802C30.2358 18.9458 30.21 18.9039 30.1947 18.8578C30.1795 18.8116 30.1753 18.7626 30.1825 18.7145C30.1825 18.5096 30.1825 18.3047 30.1825 18.1033C30.1795 18.0204 30.2057 17.9391 30.2567 17.8737C30.2801 17.8431 30.3099 17.818 30.3441 17.8003C30.3783 17.7826 30.416 17.7727 30.4545 17.7712C30.504 17.796 30.5676 17.796 30.6594 17.796Z" fill="#1C33FF"/>
<path d="M35.9983 18.6046C36.122 18.5269 36.2315 18.4527 36.3516 18.3855C36.394 18.3608 36.4435 18.3467 36.4824 18.322C36.4936 18.3168 36.5033 18.3089 36.5107 18.2991C36.5181 18.2892 36.523 18.2776 36.5248 18.2654C36.5248 18.0322 36.5248 17.8026 36.5248 17.5588C36.5236 17.5334 36.515 17.5088 36.5 17.4882C36.4223 17.3857 36.3375 17.2832 36.2598 17.1773C36.2378 17.1475 36.2254 17.1118 36.2245 17.0748C36.2245 16.9017 36.2245 16.7215 36.2245 16.5519C36.2269 16.5352 36.2232 16.5181 36.2141 16.5039C36.2051 16.4896 36.1912 16.4791 36.175 16.4742C36.1133 16.4461 36.061 16.4008 36.0244 16.3438C35.9877 16.2868 35.9682 16.2205 35.9682 16.1527C35.9682 16.0849 35.9877 16.0185 36.0244 15.9615C36.061 15.9045 36.1133 15.8593 36.175 15.8312C36.238 15.8023 36.3081 15.7926 36.3766 15.8033C36.4451 15.814 36.5089 15.8446 36.5601 15.8912C36.6019 15.9305 36.6336 15.9793 36.6523 16.0335C36.671 16.0878 36.6763 16.1457 36.6676 16.2024C36.6589 16.2591 36.6365 16.3129 36.6024 16.359C36.5683 16.4051 36.5235 16.4422 36.4718 16.4671C36.4223 16.4883 36.4046 16.5095 36.4082 16.5625C36.4082 16.7144 36.4082 16.8628 36.4082 17.0112C36.4086 17.0504 36.4209 17.0886 36.4435 17.1207C36.5142 17.2161 36.5884 17.3115 36.6626 17.4034C36.6933 17.4426 36.7096 17.4913 36.7085 17.5412C36.7085 17.7496 36.7085 17.9616 36.7085 18.17V18.2442C36.93 18.2011 37.1585 18.2096 37.3762 18.269C37.3778 18.2466 37.3778 18.2242 37.3762 18.2018V17.4952C37.3747 17.4436 37.3923 17.3933 37.4257 17.3539C37.5599 17.1843 37.6942 17.0006 37.8249 16.8381C37.8416 16.8128 37.8513 16.7835 37.8532 16.7533C37.8532 16.6932 37.8532 16.6296 37.8532 16.5696C37.8567 16.5477 37.8522 16.5253 37.8406 16.5064C37.8289 16.4876 37.8108 16.4736 37.7896 16.4671C37.7134 16.4317 37.6524 16.3702 37.6174 16.2938C37.5824 16.2174 37.5758 16.131 37.5988 16.0502C37.6231 15.9707 37.6747 15.9023 37.7445 15.857C37.8143 15.8118 37.8978 15.7926 37.9804 15.8029C38.0558 15.8126 38.1262 15.8463 38.1809 15.8991C38.2357 15.952 38.2719 16.0211 38.2842 16.0961C38.2917 16.1678 38.2771 16.2401 38.2424 16.3032C38.2077 16.3664 38.1545 16.4174 38.0899 16.4494C38.0369 16.4742 38.0157 16.5024 38.0263 16.559C38.0421 16.6545 38.0336 16.7526 38.0015 16.844C37.9694 16.9354 37.9147 17.0172 37.8426 17.0819C37.7491 17.1948 37.6619 17.3128 37.5811 17.4352C37.5619 17.4607 37.5508 17.4915 37.5494 17.5235C37.5494 17.7779 37.5494 18.0322 37.5494 18.2866C37.5483 18.3009 37.5514 18.3152 37.5583 18.3277C37.5652 18.3402 37.5756 18.3505 37.5882 18.3573L37.9415 18.5869H37.9662L38.104 18.4279C38.1606 18.3643 38.2136 18.2937 38.2736 18.2301C38.2912 18.212 38.3048 18.1903 38.3133 18.1666C38.3218 18.1428 38.3252 18.1175 38.3231 18.0923C38.3231 18.0075 38.3231 17.9227 38.3231 17.8379C38.3245 17.8231 38.3206 17.8083 38.3122 17.7961C38.3039 17.7838 38.2914 17.7749 38.2772 17.7708C38.2132 17.7445 38.1583 17.7001 38.1194 17.6429C38.0805 17.5858 38.0591 17.5184 38.0581 17.4493C38.0573 17.3779 38.0782 17.308 38.1179 17.2487C38.1576 17.1894 38.2144 17.1436 38.2807 17.1172C38.3657 17.084 38.4602 17.0849 38.5445 17.1198C38.6288 17.1547 38.6963 17.2209 38.7329 17.3044C38.7676 17.3868 38.7697 17.4793 38.7389 17.5632C38.7081 17.6472 38.6466 17.7163 38.5669 17.7567C38.5424 17.7633 38.5214 17.7791 38.5082 17.8008C38.4951 17.8225 38.4908 17.8485 38.4962 17.8733C38.5015 17.9721 38.5015 18.0712 38.4962 18.17C38.4922 18.2146 38.4763 18.2573 38.4503 18.2937C38.3443 18.4244 38.2348 18.5516 38.1217 18.6788C38.1158 18.6838 38.111 18.69 38.1077 18.697C38.1044 18.704 38.1027 18.7117 38.1027 18.7194C38.1027 18.7272 38.1044 18.7348 38.1077 18.7418C38.111 18.7489 38.1158 18.7551 38.1217 18.76C38.3024 18.9966 38.4037 19.2841 38.4113 19.5817C38.4189 19.8792 38.3324 20.1716 38.1641 20.417C37.9504 20.7014 37.6373 20.8948 37.2873 20.9584C36.9373 21.0221 36.5761 20.9514 36.276 20.7605C35.9758 20.5696 35.7586 20.2725 35.6679 19.9286C35.5771 19.5846 35.6194 19.219 35.7864 18.9049C35.8149 18.8545 35.8467 18.8061 35.8818 18.76C35.8876 18.7554 35.8924 18.7495 35.8957 18.7428C35.8989 18.7361 35.9006 18.7287 35.9006 18.7212C35.9006 18.7137 35.8989 18.7063 35.8957 18.6996C35.8924 18.6929 35.8876 18.687 35.8818 18.6823L35.5567 18.3008C35.5387 18.282 35.5248 18.2599 35.5157 18.2356C35.5065 18.2113 35.5025 18.1854 35.5037 18.1594V17.5553C35.5061 17.5376 35.5021 17.5197 35.4923 17.5048C35.4826 17.4899 35.4678 17.479 35.4507 17.474C35.3759 17.4329 35.3184 17.3661 35.2891 17.2858C35.2597 17.2056 35.2604 17.1175 35.291 17.0378C35.3216 16.958 35.38 16.8921 35.4555 16.8521C35.531 16.8122 35.6184 16.8009 35.7016 16.8204C35.7864 16.8489 35.8573 16.9084 35.9 16.9871C35.9426 17.0658 35.9538 17.1578 35.9312 17.2444C35.9164 17.297 35.8895 17.3454 35.8527 17.3859C35.8159 17.4264 35.7702 17.4577 35.7192 17.4776C35.7056 17.4823 35.694 17.4915 35.6863 17.5037C35.6786 17.5159 35.6753 17.5303 35.6769 17.5447C35.6769 17.7461 35.6769 17.951 35.6769 18.1559C35.6769 18.1559 35.6769 18.1983 35.6769 18.2089L35.9983 18.6046ZM38.2171 19.6433C38.2185 19.3979 38.147 19.1576 38.0118 18.9528C37.8765 18.748 37.6836 18.588 37.4573 18.4929C37.231 18.3979 36.9816 18.3721 36.7407 18.4189C36.4998 18.4656 36.2782 18.5828 36.1039 18.7556C35.9296 18.9284 35.8105 19.149 35.7617 19.3895C35.7129 19.63 35.7365 19.8796 35.8296 20.1067C35.9227 20.3338 36.0811 20.5281 36.2847 20.6651C36.4884 20.8021 36.7281 20.8756 36.9735 20.8763C37.3015 20.8763 37.6162 20.7468 37.8491 20.5158C38.082 20.2849 38.2143 19.9713 38.2171 19.6433ZM36.1255 16.1668C36.1255 16.2137 36.1442 16.2586 36.1773 16.2917C36.2104 16.3248 36.2553 16.3435 36.3022 16.3435C36.349 16.3435 36.394 16.3248 36.4271 16.2917C36.4602 16.2586 36.4788 16.2137 36.4788 16.1668C36.4788 16.12 36.4602 16.075 36.4271 16.0419C36.394 16.0088 36.349 15.9902 36.3022 15.9902C36.2553 15.9902 36.2104 16.0088 36.1773 16.0419C36.1442 16.075 36.1255 16.12 36.1255 16.1668ZM35.744 17.1525C35.744 17.1176 35.7336 17.0834 35.7142 17.0544C35.6948 17.0253 35.6672 17.0027 35.6349 16.9893C35.6026 16.9759 35.5671 16.9724 35.5329 16.9793C35.4986 16.9861 35.4671 17.0029 35.4424 17.0276C35.4177 17.0523 35.4009 17.0838 35.3941 17.1181C35.3872 17.1523 35.3908 17.1878 35.4041 17.2201C35.4175 17.2524 35.4401 17.28 35.4692 17.2994C35.4982 17.3188 35.5324 17.3292 35.5673 17.3292C35.6142 17.3292 35.6591 17.3106 35.6922 17.2774C35.7254 17.2443 35.744 17.1994 35.744 17.1525ZM37.7543 16.1633C37.7543 16.2101 37.7729 16.2551 37.806 16.2882C37.8391 16.3213 37.8841 16.3399 37.9309 16.3399C37.9778 16.3399 38.0227 16.3213 38.0558 16.2882C38.089 16.2551 38.1076 16.2101 38.1076 16.1633C38.1076 16.1161 38.0891 16.0708 38.056 16.0371C38.023 16.0034 37.9781 15.984 37.9309 15.9831C37.9074 15.9831 37.8842 15.9878 37.8625 15.9969C37.8408 16.006 37.8212 16.0193 37.8047 16.0361C37.7883 16.0529 37.7753 16.0727 37.7667 16.0946C37.758 16.1164 37.7538 16.1398 37.7543 16.1633ZM38.2136 17.4634C38.2136 17.5103 38.2322 17.5552 38.2653 17.5883C38.2984 17.6215 38.3434 17.6401 38.3902 17.6401C38.4371 17.6401 38.482 17.6215 38.5151 17.5883C38.5483 17.5552 38.5669 17.5103 38.5669 17.4634C38.5669 17.4166 38.5483 17.3716 38.5151 17.3385C38.482 17.3054 38.4371 17.2868 38.3902 17.2868C38.3434 17.2868 38.2984 17.3054 38.2653 17.3385C38.2322 17.3716 38.2136 17.4166 38.2136 17.4634Z" fill="#1C33FF"/>
<path d="M36.8914 18.9976C36.8914 18.9481 36.8914 18.9093 36.8914 18.8669C36.8909 18.8548 36.8928 18.8428 36.897 18.8314C36.9012 18.8201 36.9075 18.8097 36.9157 18.8009C36.9239 18.792 36.9338 18.7849 36.9448 18.7798C36.9558 18.7748 36.9676 18.7719 36.9797 18.7715C37.0291 18.7715 37.0609 18.8103 37.0645 18.8704C37.068 18.9305 37.0645 18.9481 37.0645 18.987H37.2305C37.3089 18.9888 37.3835 19.0213 37.4383 19.0774C37.4931 19.1335 37.5238 19.2089 37.5238 19.2873C37.5238 19.3438 37.4955 19.3827 37.446 19.3862C37.4349 19.3872 37.4237 19.386 37.413 19.3826C37.4024 19.3792 37.3925 19.3737 37.3839 19.3665C37.3754 19.3593 37.3684 19.3504 37.3633 19.3405C37.3582 19.3305 37.3551 19.3197 37.3542 19.3085V19.259C37.3515 19.2315 37.3382 19.2062 37.317 19.1884C37.2959 19.1705 37.2687 19.1617 37.2411 19.1637C37.0645 19.1637 36.8878 19.1637 36.7112 19.1637C36.697 19.1622 36.6826 19.1636 36.669 19.1679C36.6553 19.1721 36.6427 19.179 36.6318 19.1883C36.6209 19.1975 36.612 19.2089 36.6056 19.2216C36.5992 19.2344 36.5955 19.2483 36.5946 19.2626C36.5911 19.2872 36.5911 19.3122 36.5946 19.3368V19.9303C36.5946 20.061 36.6334 20.0999 36.7642 20.0999H37.2199C37.3153 20.0999 37.3471 20.0752 37.3648 19.9798V19.9374C37.3706 19.9178 37.3833 19.901 37.4005 19.8901C37.4177 19.8791 37.4383 19.8747 37.4585 19.8777C37.4787 19.8807 37.4971 19.8909 37.5104 19.9064C37.5237 19.9219 37.531 19.9417 37.5308 19.9621C37.5332 20.0012 37.5277 20.0404 37.5147 20.0773C37.5017 20.1143 37.4815 20.1482 37.4551 20.1772C37.4288 20.2062 37.3969 20.2296 37.3613 20.246C37.3258 20.2625 37.2873 20.2717 37.2482 20.273H37.1033C37.068 20.273 37.0574 20.273 37.0574 20.3189C37.0609 20.3518 37.0609 20.385 37.0574 20.4179C37.0533 20.4378 37.0425 20.4558 37.0267 20.4687C37.011 20.4816 36.9912 20.4886 36.9708 20.4886C36.9505 20.4886 36.9307 20.4816 36.9149 20.4687C36.8992 20.4558 36.8883 20.4378 36.8843 20.4179C36.8843 20.2942 36.8843 20.2872 36.7571 20.2978C36.7091 20.3049 36.66 20.3007 36.6139 20.2855C36.5677 20.2703 36.5258 20.2444 36.4915 20.2101C36.4571 20.1757 36.4313 20.1338 36.4161 20.0877C36.4008 20.0415 36.3966 19.9925 36.4038 19.9444C36.4038 19.7431 36.4038 19.5381 36.4038 19.3332C36.3988 19.2517 36.4239 19.1712 36.4745 19.1071C36.498 19.0759 36.5284 19.0504 36.5633 19.0327C36.5982 19.0149 36.6367 19.0053 36.6758 19.0047L36.8914 18.9976Z" fill="#1C33FF"/>
<path d="M35.0443 24.2227H33.942V31.5042H35.0443V24.2227Z" fill="white"/>
<path d="M23.5147 32.5066L23.3081 33.5894L31.7691 35.2034L31.9756 34.1206L23.5147 32.5066Z" fill="white"/>
<path d="M33.2559 37.6565L27.6459 44.1926L28.4824 44.9106L34.0924 38.3745L33.2559 37.6565Z" fill="white"/>
<path d="M36.562 37.6671L35.7255 38.385L41.3355 44.9211L42.172 44.2032L36.562 37.6671Z" fill="white"/>
<path d="M45.198 32.5066L36.7373 34.1221L36.9441 35.2048L45.4047 33.5893L45.198 32.5066Z" fill="white"/>
<path d="M34.5743 43.9648C39.3724 43.9648 43.262 40.0752 43.262 35.2771C43.262 30.479 39.3724 26.5894 34.5743 26.5894C29.7762 26.5894 25.8866 30.479 25.8866 35.2771C25.8866 40.0752 29.7762 43.9648 34.5743 43.9648Z" fill="white"/>
<path d="M33.7716 39.4143C33.8706 39.061 33.9624 38.7077 34.0578 38.3897C34.0931 38.2555 34.1144 38.1283 33.9872 38.0364C33.86 37.9446 33.7504 37.994 33.6339 38.0611L30.9099 39.6333C30.6732 39.7711 30.6484 39.8701 30.7827 40.1068C31.295 40.9971 31.8108 41.8733 32.3231 42.7777C32.3902 42.8979 32.4644 43.0003 32.6234 42.9791C32.7824 42.9579 32.8248 42.8343 32.8601 42.7035L33.1392 41.6931C33.3724 41.7249 33.595 41.7673 33.8211 41.792C34.8173 41.9177 35.829 41.8151 36.7796 41.4919C37.7302 41.1687 38.5948 40.6334 39.3079 39.9266C40.1491 39.1267 40.7593 38.1149 41.0744 36.9977C41.1698 36.6727 41.1274 36.602 40.8059 36.5137L39.2584 36.0968C38.9899 36.0226 38.9051 36.072 38.8203 36.3441C38.5358 37.3175 37.9225 38.1622 37.085 38.7343C36.2476 39.3063 35.2377 39.5704 34.2274 39.4814C34.0932 39.4638 33.9448 39.439 33.7716 39.4143Z" fill="#DA251D"/>
<path d="M38.7645 33.6945L37.7046 33.9701C37.5774 34.0019 37.475 34.0513 37.4538 34.1926C37.4326 34.334 37.5244 34.4223 37.641 34.4894L40.365 36.0616C40.6123 36.1994 40.7183 36.1747 40.849 35.9274L42.3823 33.274L42.4141 33.2175C42.4482 33.1735 42.4667 33.1195 42.4667 33.0638C42.4667 33.0082 42.4482 32.9541 42.4141 32.9101C42.378 32.8649 42.3282 32.8325 42.2722 32.8179C42.2161 32.8032 42.1569 32.8071 42.1032 32.8289L41.0433 33.1009C40.8843 32.7476 40.7536 32.3943 40.5734 32.041C40.0958 31.0875 39.3946 30.2636 38.5296 29.6398C37.6646 29.016 36.6615 28.6107 35.606 28.4585C34.7229 28.3209 33.8209 28.3666 32.9562 28.5928C32.7266 28.6493 32.663 28.7553 32.723 28.9814C32.8679 29.5361 33.0163 30.0873 33.1647 30.6384C33.2247 30.8575 33.3236 30.914 33.5498 30.861C34.5411 30.6125 35.5881 30.7175 36.5103 31.158C37.4325 31.5985 38.1722 32.3468 38.602 33.274C38.655 33.4012 38.7009 33.5355 38.7645 33.6945Z" fill="#DA251D"/>
<path d="M29.6876 30.5147C29.2228 31.0329 28.836 31.6161 28.5394 32.2458C27.957 33.4898 27.7681 34.8818 27.9979 36.236C28.2277 37.5902 28.8653 38.842 29.8254 39.8242C29.85 39.8606 29.8832 39.8904 29.922 39.9111C29.9608 39.9317 30.0041 39.9425 30.048 39.9425C30.092 39.9425 30.1352 39.9317 30.174 39.9111C30.2129 39.8904 30.246 39.8606 30.2706 39.8242L31.4754 38.6194C31.652 38.4428 31.6485 38.3368 31.4754 38.1531C30.7387 37.3902 30.304 36.3859 30.252 35.3267C30.2 34.2676 30.5343 33.2255 31.1927 32.3942L31.3093 32.2529C31.5707 32.5037 31.8251 32.744 32.076 32.9913C32.1714 33.0867 32.2668 33.1609 32.4081 33.1079C32.5494 33.0549 32.5706 32.9312 32.5706 32.797C32.5706 31.7394 32.5706 30.6795 32.5706 29.6173C32.5706 29.3699 32.4893 29.2852 32.2385 29.2852H29.1047C28.9704 29.2852 28.8503 29.3064 28.7938 29.4477C28.7734 29.5049 28.7728 29.5673 28.792 29.6249C28.8112 29.6826 28.8491 29.7321 28.8998 29.7656L29.6876 30.5147Z" fill="#DA251D"/>
</svg>
