<svg width="376" height="376" viewBox="0 0 376 376" fill="none" xmlns="http://www.w3.org/2000/svg">
<g clip-path="url(#clip0_22886_12475)">
<path d="M188 376C291.83 376 376 291.83 376 188C376 84.1705 291.83 0 188 0C84.1705 0 0 84.1705 0 188C0 291.83 84.1705 376 188 376Z" fill="#3E73C4"/>
<path d="M235.259 212.957C235.259 188 220.219 179.446 190.139 175.874C168.66 173.019 164.371 167.32 164.371 157.333C164.371 147.345 171.538 140.93 185.85 140.93C198.74 140.93 205.907 145.207 209.479 155.911C209.851 156.946 210.532 157.842 211.429 158.479C212.326 159.115 213.396 159.461 214.496 159.471H225.953C226.614 159.489 227.273 159.372 227.888 159.127C228.503 158.883 229.062 158.516 229.531 158.049C230 157.582 230.37 157.025 230.617 156.411C230.864 155.797 230.984 155.139 230.97 154.477V153.772C229.57 146.028 225.651 138.963 219.823 133.674C213.995 128.386 206.583 125.17 198.74 124.527V107.419C198.74 104.563 196.589 102.425 193.017 101.708H182.266C179.411 101.708 177.261 103.847 176.544 107.419V123.822C155.053 126.665 141.458 140.93 141.458 158.766C141.458 182.29 155.77 191.56 185.85 195.132C205.907 198.693 212.346 202.981 212.346 214.391C212.346 225.788 202.323 233.637 188.717 233.637C170.093 233.637 163.654 225.8 161.504 215.096C160.799 212.252 158.637 210.818 156.487 210.818H144.314C143.653 210.802 142.996 210.921 142.382 211.166C141.768 211.411 141.21 211.778 140.743 212.245C140.275 212.711 139.906 213.268 139.66 213.881C139.413 214.495 139.294 215.152 139.308 215.812V216.517C142.163 234.354 153.631 247.185 177.261 250.757V267.877C177.261 270.72 179.411 272.87 182.983 273.575H193.734C196.589 273.575 198.74 271.437 199.456 267.877V250.745C220.947 247.185 235.259 232.203 235.259 212.945V212.957Z" fill="white"/>
<path d="M151.481 287.84C95.6215 267.865 66.975 205.825 87.749 150.917C98.4885 120.954 122.118 98.1478 151.481 87.4435C154.348 86.0217 155.77 83.8833 155.77 80.3113V70.3238C155.77 67.4803 154.348 65.3418 151.481 64.625C150.764 64.625 149.331 64.625 148.614 65.33C132.498 70.3628 117.537 78.5338 104.592 89.3725C91.6467 100.211 80.9734 113.504 73.1866 128.484C65.3998 143.465 60.6532 159.838 59.2201 176.66C57.7871 193.483 59.6958 210.423 64.8365 226.505C77.7145 266.455 108.511 297.122 148.614 309.953C151.481 311.375 154.348 309.953 155.053 307.098C155.77 306.393 155.77 305.664 155.77 304.243V294.255C155.77 292.117 153.631 289.273 151.481 287.84ZM227.386 65.3417C224.519 63.9082 221.652 65.3417 220.947 68.1852C220.23 68.902 220.23 69.6188 220.23 71.0405V81.028C220.23 83.8832 222.369 86.7267 224.519 88.1602C280.379 108.135 309.025 170.175 288.251 225.083C277.512 255.046 253.882 277.852 224.519 288.557C221.652 289.978 220.23 292.117 220.23 295.689V305.676C220.23 308.52 221.652 310.658 224.519 311.375C225.236 311.375 226.669 311.375 227.386 310.67C243.502 305.637 258.463 297.466 271.408 286.627C284.353 275.789 295.027 262.496 302.813 247.516C310.6 232.535 315.347 216.162 316.78 199.34C318.213 182.517 316.304 165.577 311.164 149.495C298.286 108.84 266.772 78.1727 227.386 65.3417Z" fill="white"/>
</g>
<defs>
<clipPath id="clip0_22886_12475">
<rect width="376" height="376" fill="white"/>
</clipPath>
</defs>
</svg>
